<?xml version="1.0" encoding="UTF-8" standalone="no"?>
<!-- Created with Inkscape (http://www.inkscape.org/) -->

<!-- Traced manually by RubbaBoy for https://ms-paint-i.de/ -->

<svg
   xmlns:dc="http://purl.org/dc/elements/1.1/"
   xmlns:cc="http://creativecommons.org/ns#"
   xmlns:rdf="http://www.w3.org/1999/02/22-rdf-syntax-ns#"
   xmlns:svg="http://www.w3.org/2000/svg"
   xmlns="http://www.w3.org/2000/svg"
   xmlns:sodipodi="http://sodipodi.sourceforge.net/DTD/sodipodi-0.dtd"
   xmlns:inkscape="http://www.inkscape.org/namespaces/inkscape"
   version="1.1"
   id="svg3794"
   width="314.3103"
   height="310.12662"
   viewBox="0 0 314.3103 310.12662"
   sodipodi:docname="ms-paint-logo.svg"
   inkscape:version="0.92.3 (2405546, 2018-03-11)">
  <metadata
     id="metadata3800">
    <rdf:RDF>
      <cc:Work
         rdf:about="">
        <dc:format>image/svg+xml</dc:format>
        <dc:type
           rdf:resource="http://purl.org/dc/dcmitype/StillImage" />
        <dc:title></dc:title>
      </cc:Work>
    </rdf:RDF>
  </metadata>
  <defs
     id="defs3798">
    <inkscape:path-effect
       effect="spiro"
       id="path-effect4655"
       is_visible="true" />
  </defs>
  <sodipodi:namedview
     pagecolor="#ffffff"
     bordercolor="#666666"
     borderopacity="1"
     objecttolerance="10"
     gridtolerance="10"
     guidetolerance="10"
     inkscape:pageopacity="0"
     inkscape:pageshadow="2"
     inkscape:window-width="1920"
     inkscape:window-height="1017"
     id="namedview3796"
     showgrid="false"
     inkscape:snap-grids="false"
     inkscape:zoom="1.4142136"
     inkscape:cx="171.5002"
     inkscape:cy="206.70394"
     inkscape:window-x="1672"
     inkscape:window-y="-8"
     inkscape:window-maximized="1"
     inkscape:current-layer="svg3794"
     inkscape:snap-midpoints="true"
     inkscape:snap-intersection-paths="true"
     inkscape:object-paths="false"
     inkscape:object-nodes="false"
     showborder="true"
     inkscape:snap-to-guides="false"
     fit-margin-top="0"
     fit-margin-left="0"
     fit-margin-right="0"
     fit-margin-bottom="0" />
  <path
     style="fill:none;stroke:#000000;stroke-width:3;stroke-linecap:round;stroke-linejoin:miter;stroke-miterlimit:4;stroke-dasharray:none;stroke-opacity:1"
     d="m 258.67288,83.301047 c 7.00296,5.910755 12.57436,13.439086 17.70314,21.033433 3.15965,4.67859 5.75687,9.75322 7.94597,14.95711 2.7895,6.63115 5.23171,13.49268 6.54373,20.56602 1.45167,7.8262 1.83761,15.89011 1.40223,23.83789 -0.45814,8.36324 -1.83933,16.73845 -4.20669,24.77271 -2.34762,7.96725 -5.72917,15.67191 -9.8156,22.90306 -3.70691,6.55958 -8.13427,12.77234 -13.20432,18.34583 -5.53541,6.08505 -12.08268,11.19674 -18.57953,16.24248 -7.16767,5.56672 -14.54285,10.94485 -22.43566,15.42452 -6.33599,3.59607 -12.03393,5.98393 -19.86491,9.11449 -3.43118,1.37167 -10.87017,3.84452 -14.37456,5.03016 -3.50439,1.18563 -3.57682,1.34369 -7.16151,2.2406 -5.40445,1.35223 -10.8737,2.45009 -16.37625,3.36208 m -20.5512,4.0675 c -10.2154,0.62115 -18.00774,0.75972 -27.01694,0.95021 -7.72922,0.16343 -15.46834,0.49492 -23.192258,0.16526 -5.627839,-0.2402 -11.360108,-0.20109 -16.826745,-1.55982 -5.896908,-1.46567 -12.596835,-2.64886 -16.826744,-7.01115 -2.437317,-2.5136 -3.589331,-6.31757 -3.739277,-9.8156 -0.14573,-3.39967 1.222227,-6.80304 2.804458,-9.8156 3.190888,-6.07544 8.930434,-10.4319 13.087468,-15.89192 4.26805,-5.60584 9.140513,-10.9248 12.152648,-17.29416 1.244344,-2.63125 2.728032,-5.52911 2.337048,-8.41337 -0.488141,-3.60099 -2.463389,-7.52856 -5.608915,-9.34819 -4.857174,-2.80979 -9.824408,-1.79802 -14.255992,0.2337 -7.056225,3.23503 -13.388627,7.87323 -19.864906,12.15266 -5.266112,3.47977 -10.037097,7.69528 -15.424516,10.98412 -4.341821,2.65054 -8.544612,6.13137 -13.554877,7.01114 -3.559372,0.625 -7.868713,0.77849 -10.75042,-1.40223 -4.7308866,-3.58007 -6.0261792,-10.50886 -7.0111435,-16.35933 -1.45221123,-8.62582 0.5910663,-17.52168 1.8696382,-26.17494 1.4475134,-9.79664 3.5041047,-19.55441 6.5437333,-28.97939 2.078481,-6.44474 4.761864,-12.72008 7.945963,-18.69639 3.759203,-7.05574 8.184644,-13.78375 13.087468,-20.09861 4.801219,-6.18399 10.349012,-11.76518 15.891925,-17.29415 C 52.576546,103.32312 57.93386,98.198318 63.704671,93.584058 72.008822,86.944175 80.62721,80.593417 89.879607,75.355085 97.162,71.232089 104.98616,68.11291 112.78268,65.072074 c 7.80327,-3.043469 15.6571,-6.149161 23.83788,-7.945962 8.26807,-1.815973 16.78793,-2.336332 25.24012,-2.804458 8.55606,-0.473879 17.17699,-0.812798 25.70753,0 8.21302,0.782544 16.43683,2.193487 24.30529,4.674096 7.91307,2.494675 15.34424,6.367111 22.71949,10.167878"
     id="path4645"
     inkscape:connector-curvature="0"
     sodipodi:nodetypes="caaaaaaaaasssccaaaaaaaaassaaaaaaaaaaaaaaaaac" />
  <path
     style="fill:none;stroke:#000000;stroke-width:3;stroke-linecap:butt;stroke-linejoin:miter;stroke-miterlimit:4;stroke-dasharray:none;stroke-opacity:1"
     d="m 145.69772,285.19893 c 16.84604,-48.55424 34.3138,-96.67693 54.02309,-144.4065 2.15478,-5.21819 4.87206,-10.22174 7.94596,-14.95711 3.44483,-5.30679 8.6644,-9.39802 11.68524,-14.9571 8.89271,-16.364729 18.22897,-52.817289 18.22897,-52.817289 L 228.7002,2.4391921 c 0,0 11.52154,-1.0124728 17.29415,-0.9348191 5.78311,0.077795 11.61047,0.3316382 17.29416,1.4022287 4.79556,0.9033019 9.57991,2.1870962 14.02228,4.2066861 4.52537,2.0573245 8.68842,4.9039552 12.62006,7.9459622 2.87672,2.225791 5.49779,4.788551 7.94596,7.478554 2.39136,2.627583 4.63138,5.419093 6.54374,8.413372 3.11309,4.874331 7.94596,15.424515 7.94596,15.424515 l -45.80614,25.240117 c 0,0 -22.79668,30.655022 -28.04457,48.610602 -0.96257,3.29343 0.0701,6.89416 -0.46741,10.28301 -0.73422,4.6292 -1.66445,9.35207 -3.73928,13.55488 -26.53552,53.75094 -55.53632,110.91739 -80.86185,162.65853 -0.80172,1.63795 -3.32508,1.70778 -5.14151,1.86963 -1.38428,0.12334 -2.86222,-0.0945 -4.10845,-0.70962 -1.3283,-0.65561 -2.61111,-1.68614 -3.26377,-3.01589 -0.55428,-1.12932 -0.5629,-2.52318 -0.33051,-3.75954 1.01522,-5.4012 3.26956,-10.64798 5.0947,-15.90848 z"
     id="path4647"
     inkscape:connector-curvature="0"
     sodipodi:nodetypes="ssaaccaaaaaaccaassaaass" />
  <path
     style="fill:none;stroke:#000000;stroke-width:3;stroke-linecap:butt;stroke-linejoin:miter;stroke-miterlimit:4;stroke-dasharray:none;stroke-opacity:1"
     d="m 237.58098,58.060931 c 0,0 7.27677,1.678046 10.7678,2.973383 3.0841,1.144346 6.07076,2.576389 8.92373,4.213983 3.25548,1.868631 9.28786,6.367511 9.28786,6.367511"
     id="path4649"
     inkscape:connector-curvature="0"
     sodipodi:nodetypes="caac" />
  <path
     style="fill:none;stroke:#000000;stroke-width:3;stroke-linecap:butt;stroke-linejoin:miter;stroke-miterlimit:4;stroke-dasharray:none;stroke-opacity:1"
     d="m 219.35201,110.87822 c 0,0 6.24176,1.50604 9.16627,2.78957 1.98969,0.87325 3.80752,2.10456 5.61864,3.30509 1.51567,1.00469 4.37888,3.25353 4.37888,3.25353"
     id="path4651"
     inkscape:connector-curvature="0"
     sodipodi:nodetypes="caac" />
  <path
     style="fill:none;stroke:#000000;stroke-width:3;stroke-linecap:butt;stroke-linejoin:miter;stroke-miterlimit:4;stroke-dasharray:none;stroke-opacity:1"
     d="m 108.70895,177.78644 c -2.43148,5.07768 -2.47747,11.23801 -0.12207,16.35142 2.35541,5.11341 7.06718,9.08216 12.5065,10.53429 5.43933,1.45213 11.50223,0.35987 16.09282,-2.89918 4.59058,-3.25905 7.62111,-8.62261 8.04394,-14.23653 0.36294,-4.81866 -1.17348,-9.75499 -4.20697,-13.51652 -3.03349,-3.76153 -7.53228,-6.30885 -12.31845,-6.97501 -4.00784,-0.55783 -8.18696,0.19113 -11.75166,2.10605 -3.5647,1.91492 -6.49646,4.98586 -8.24411,8.63548 z"
     id="path4653"
     inkscape:connector-curvature="0"
     inkscape:path-effect="#path-effect4655"
     inkscape:original-d="m 108.70895,177.78644 c -6.8315,3.47134 24.34846,6.499 36.52119,9.75 12.17273,3.251 -11.1812,-13.77219 -16.52542,-20.49153 -5.34422,-6.71934 -13.16426,7.27019 -19.99577,10.74153 z"
     sodipodi:nodetypes="ssss" />
  <path
     style="fill:none;stroke:#000000;stroke-width:3;stroke-linecap:butt;stroke-linejoin:miter;stroke-miterlimit:4;stroke-dasharray:none;stroke-opacity:1"
     d="m 27.899632,162.41779 c 1.321426,-3.98158 3.227402,-8.02879 6.279661,-10.90678 3.226226,-3.04202 7.525325,-5.21465 11.898305,-5.94915 4.164194,-0.69943 8.616396,0.14156 12.559322,1.65254 4.365809,1.67303 8.245878,4.6422 11.567797,7.93221 1.910976,1.89262 3.712619,4.08084 4.627118,6.61017 0.90214,2.49515 0.951946,5.29497 0.661017,7.9322 -0.202501,1.83564 -0.696495,3.70809 -1.652542,5.28814 -1.855106,3.06592 -5.629025,4.61006 -7.601695,7.60169 -1.306384,1.98118 -1.200528,4.72658 -2.644068,6.61017 -1.675367,2.18609 -4.069286,3.89474 -6.610169,4.95763 -2.055447,0.85983 -4.419245,1.3965 -6.61017,0.99152 -2.862158,-0.52905 -5.578387,-2.20423 -7.601695,-4.29661 -1.986743,-2.05457 -1.801611,-5.73531 -3.966101,-7.60169 -2.295601,-1.97944 -6.02396,-1.36621 -8.593221,-2.97458 -1.584734,-0.99205 -3.354152,-2.19945 -3.966101,-3.9661 -1.525192,-4.40312 0.184751,-9.45877 1.652542,-13.88136 z"
     id="path4657"
     inkscape:connector-curvature="0"
     sodipodi:nodetypes="aaaaaaaaaaaaaaaaa" />
  <path
     style="fill:none;stroke:#000000;stroke-width:3;stroke-linecap:butt;stroke-linejoin:miter;stroke-miterlimit:4;stroke-dasharray:none;stroke-opacity:1"
     d="m 74.501327,107.22288 c -1.267305,1.88475 -2.73256,4.01018 -2.644068,6.27966 0.149746,3.8404 4.450446,6.49484 5.288136,10.24576 0.648783,2.90505 -1.054029,6.03638 -0.330509,8.92373 0.744042,2.96924 2.58142,5.65511 4.627119,7.9322 1.737644,1.93419 3.854225,3.69024 6.279661,4.62712 4.029019,1.5563 8.596679,1.79521 12.889834,1.32204 4.15547,-0.45799 8.50679,-1.52164 11.8983,-3.9661 2.23435,-1.61043 4.02475,-4.01873 4.95763,-6.61017 1.56901,-4.35855 -0.16508,-9.32325 0.66102,-13.88136 0.57783,-3.18824 2.54558,-6.04258 2.97457,-9.25424 0.32123,-2.40487 0.42513,-4.96562 -0.33051,-7.27118 -0.74228,-2.26479 -2.13955,-4.41815 -3.9661,-5.949161 -1.47454,-1.23596 -3.36495,-2.256405 -5.28813,-2.31356 -2.22978,-0.06627 -4.22387,1.447522 -6.27966,2.31356 -2.36149,0.994821 -4.40432,2.940201 -6.940683,3.305091 -2.760846,0.39718 -5.488603,-1.03163 -8.262712,-1.32204 -2.194152,-0.2297 -4.445814,-0.75785 -6.610169,-0.3305 -2.03069,0.40096 -3.925171,1.45384 -5.618644,2.64406 -1.274696,0.89589 -2.43572,2.01216 -3.305085,3.30509 z"
     id="path4659"
     inkscape:connector-curvature="0"
     sodipodi:nodetypes="aaaaaaaaaaaaaaaaaaaa" />
  <path
     style="fill:none;stroke:#000000;stroke-width:3;stroke-linecap:butt;stroke-linejoin:miter;stroke-miterlimit:4;stroke-dasharray:none;stroke-opacity:1"
     d="m 139.6115,82.765246 c -1.66216,3.110946 -2.03686,6.771278 -2.64407,10.245763 -0.60958,3.488019 -1.61507,7.090731 -0.99153,10.576281 0.538,3.00735 1.69854,6.21533 3.9661,8.26271 2.17269,1.96173 5.64198,1.67048 8.26272,2.97457 2.70837,1.34769 4.98871,3.43321 7.60169,4.95763 2.89415,1.68846 5.62756,4.0252 8.92373,4.62712 3.71024,0.67754 7.63719,-0.19765 11.23729,-1.32203 3.81051,-1.1901 7.64503,-2.90864 10.57627,-5.61865 2.10947,-1.95026 4.06406,-4.45404 4.62712,-7.27119 0.50408,-2.52205 -0.90113,-5.06444 -1.32204,-7.60169 -0.34681,-2.09058 -1.23649,-4.174721 -0.99152,-6.279666 0.30272,-2.601143 2.72497,-4.66441 2.97458,-7.271187 0.26772,-2.795994 -0.36078,-5.7686 -1.65255,-8.262711 -1.32609,-2.560379 -3.37629,-4.977952 -5.94915,-6.279661 -2.37766,-1.202947 -5.31442,-1.489061 -7.9322,-0.991526 -1.66495,0.31644 -2.76811,2.495559 -4.46187,2.4375 -2.9398,-0.100771 -4.93562,-3.202361 -7.43644,-4.751059 -2.1846,-1.352866 -4.04079,-3.997129 -6.61017,-3.966102 -3.91189,0.04724 -6.93127,3.749638 -9.91525,6.279661 -3.15423,2.674377 -6.31392,5.606816 -8.26271,9.254237 z"
     id="path4661"
     inkscape:connector-curvature="0"
     sodipodi:nodetypes="aaaaaaaaaaaaaaaaaaaaa" />
</svg>
